<?xml version="1.0" standalone="no"?><!DOCTYPE svg PUBLIC "-//W3C//DTD SVG 1.1//EN" "http://www.w3.org/Graphics/SVG/1.1/DTD/svg11.dtd"><svg t="1614495437419" class="icon" viewBox="0 0 1024 1024" version="1.1" xmlns="http://www.w3.org/2000/svg" p-id="3988" xmlns:xlink="http://www.w3.org/1999/xlink" width="64" height="64"><defs><style type="text/css"></style></defs><path d="M876.544 91.136H141.312c-67.584 0-122.88 55.296-122.88 122.88v490.496c0 67.584 55.296 122.88 122.88 122.88h336.896v61.44H233.472c-18.432 0-30.72 12.288-30.72 30.72s12.288 30.72 30.72 30.72h550.912c18.432 0 30.72-12.288 30.72-30.72s-12.288-30.72-30.72-30.72H539.648v-61.44h336.896c67.584 0 122.88-55.296 122.88-122.88V214.016c0-67.584-55.296-122.88-122.88-122.88z m61.44 612.352c0 36.864-24.576 61.44-61.44 61.44H141.312c-36.864 0-61.44-24.576-61.44-61.44V214.016c0-36.864 24.576-61.44 61.44-61.44h735.232c36.864 0 61.44 24.576 61.44 61.44v489.472z" p-id="3989"></path><path d="M821.248 372.736L723.968 471.04 564.224 257.024c-6.144-6.144-18.432-12.288-30.72-12.288-6.144 0-18.432 6.144-24.576 18.432l-98.304 250.88-92.16-135.168c-6.144-6.144-12.288-12.288-24.576-12.288s-18.432 0-24.576 6.144l-122.88 122.88c-6.144 12.288-6.144 36.864 0 49.152s30.72 12.288 43.008 0l98.304-98.304 104.448 153.6c6.144 6.144 12.288 12.288 24.576 12.288h6.144c12.288 0 18.432-6.144 24.576-18.432l98.304-257.024 153.6 201.728c6.144 6.144 12.288 12.288 24.576 12.288 6.144 0 18.432 0 24.576-6.144l122.88-122.88c12.288-12.288 12.288-30.72 0-43.008-13.312-12.288-37.888-12.288-50.176-6.144z" p-id="3990"></path></svg>