<?xml version="1.0" standalone="no"?><!DOCTYPE svg PUBLIC "-//W3C//DTD SVG 1.1//EN" "http://www.w3.org/Graphics/SVG/1.1/DTD/svg11.dtd"><svg t="1614439155761" class="icon" viewBox="0 0 1024 1024" version="1.1" xmlns="http://www.w3.org/2000/svg" p-id="5290" xmlns:xlink="http://www.w3.org/1999/xlink" width="200" height="200"><defs><style type="text/css"></style></defs><path d="M512.1 962.1c-248.1 0-450-201.9-450-450s201.9-450 450-450 450 201.9 450 450-201.9 450-450 450z m0-857.1C287.6 105 105 287.7 105 512.1s182.6 407.1 407.1 407.1 407.1-182.6 407.1-407.1S736.6 105 512.1 105z" p-id="5291"></path><path d="M407.1 323.8h156.1c89.7 0 134.5 38.2 134.5 114.5 0 77-45.2 115.5-135.6 115.5h-97.6v146.6H407V323.8z m57.5 49.1v131.9h93.9c28.5 0 49.2-5.3 62.2-15.8 13-10.9 19.5-27.8 19.5-50.6 0-23.5-6.7-40.1-20-49.6-13-10.5-33.6-15.8-61.7-15.8h-93.9z" p-id="5292"></path></svg>