<?xml version="1.0" standalone="no"?><!DOCTYPE svg PUBLIC "-//W3C//DTD SVG 1.1//EN" "http://www.w3.org/Graphics/SVG/1.1/DTD/svg11.dtd"><svg t="1614438574628" class="icon" viewBox="0 0 1024 1024" version="1.1" xmlns="http://www.w3.org/2000/svg" p-id="5164" xmlns:xlink="http://www.w3.org/1999/xlink" width="200" height="200"><defs><style type="text/css"></style></defs><path d="M864 928H160a32 32 0 0 1-32-32V432a32 32 0 0 1 11.52-24.64l352-288a32 32 0 0 1 40.64 0l352 288a32 32 0 0 1 11.84 24.64V896a32 32 0 0 1-32 32zM192 864h640V448L512 185.28 192 448z" p-id="5165"></path><path d="M640 711.04a32 32 0 0 1-32-32v-160a32 32 0 0 1 64 0v160a32 32 0 0 1-32 32z" p-id="5166"></path></svg>