<?xml version="1.0" standalone="no"?><!DOCTYPE svg PUBLIC "-//W3C//DTD SVG 1.1//EN" "http://www.w3.org/Graphics/SVG/1.1/DTD/svg11.dtd"><svg t="1614495432143" class="icon" viewBox="0 0 1024 1024" version="1.1" xmlns="http://www.w3.org/2000/svg" p-id="3860" xmlns:xlink="http://www.w3.org/1999/xlink" width="64" height="64"><defs><style type="text/css"></style></defs><path d="M512 774.3c-45.3 0-89.2-8.9-130.6-26.4-39.9-16.9-75.8-41.1-106.6-71.9-30.8-30.8-55-66.7-71.9-106.6-17.5-41.4-26.4-85.3-26.4-130.6s8.9-89.2 26.4-130.6c16.9-39.9 41.1-75.8 71.9-106.6 30.8-30.8 66.7-55 106.6-71.9 41.4-17.5 85.3-26.4 130.6-26.4s89.2 8.9 130.6 26.4c39.9 16.9 75.8 41.1 106.6 71.9 30.8 30.8 55 66.7 71.9 106.6 17.5 41.4 26.4 85.3 26.4 130.6s-8.9 89.2-26.4 130.6c-16.9 39.9-41.1 75.8-71.9 106.6-30.8 30.8-66.7 55-106.6 71.9-41.4 17.5-85.3 26.4-130.6 26.4z m0-600c-145.9 0-264.6 118.7-264.6 264.6S366.1 703.4 512 703.4s264.6-118.7 264.6-264.6S657.9 174.3 512 174.3z" p-id="3861"></path><path d="M512 438.8m-98 0a98 98 0 1 0 196 0 98 98 0 1 0-196 0Z" p-id="3862"></path><path d="M668.4 920.6H355.6c-19.6 0-35.4-15.9-35.4-35.4s15.9-35.4 35.4-35.4h312.8c19.6 0 35.4 15.9 35.4 35.4s-15.8 35.4-35.4 35.4z" p-id="3863"></path><path d="M392.6 730.2h70.9v155h-70.9zM560.6 730.2h70.9v155h-70.9z" p-id="3864"></path></svg>