<?xml version="1.0" standalone="no"?><!DOCTYPE svg PUBLIC "-//W3C//DTD SVG 1.1//EN" "http://www.w3.org/Graphics/SVG/1.1/DTD/svg11.dtd"><svg t="1614501162456" class="icon" viewBox="0 0 1024 1024" version="1.1" xmlns="http://www.w3.org/2000/svg" p-id="3184" xmlns:xlink="http://www.w3.org/1999/xlink" width="64" height="64"><defs><style type="text/css"></style></defs><path d="M812.373 494.933c-40.96-51.2-160.426-191.146-300.373-191.146S249.173 443.733 211.627 494.933c-10.24 13.654-10.24 27.307 0 40.96C252.587 587.093 372.053 727.04 512 727.04c143.36 0 259.413-139.947 300.373-191.147 6.827-13.653 6.827-30.72 0-40.96zM512 679.253c-116.053 0-218.453-116.053-259.413-163.84 40.96-47.786 146.773-163.84 259.413-163.84 116.053 0 218.453 116.054 259.413 163.84C730.453 563.2 624.64 679.253 512 679.253z" p-id="3185"></path><path d="M512 419.84c-51.2 0-95.573 40.96-95.573 95.573 0 51.2 40.96 92.16 95.573 92.16s95.573-40.96 95.573-92.16C604.16 460.8 563.2 419.84 512 419.84z m0 143.36c-27.307 0-51.2-23.893-51.2-51.2s23.893-51.2 51.2-51.2 51.2 23.893 51.2 51.2-23.893 51.2-51.2 51.2z" p-id="3186"></path></svg>