<?xml version="1.0" standalone="no"?><!DOCTYPE svg PUBLIC "-//W3C//DTD SVG 1.1//EN" "http://www.w3.org/Graphics/SVG/1.1/DTD/svg11.dtd"><svg t="1614439307933" class="icon" viewBox="0 0 1024 1024" version="1.1" xmlns="http://www.w3.org/2000/svg" p-id="5173" xmlns:xlink="http://www.w3.org/1999/xlink" width="200" height="200"><defs><style type="text/css"></style></defs><path d="M460.062 174.008c5.26 0 10.414-2.14 14.134-5.876a20.092 20.092 0 0 0 5.866-14.14c0-5.258-2.14-10.42-5.866-14.14A20.126 20.126 0 0 0 460.06 134.008c-5.266 0-10.42 2.124-14.14 5.844a20.16 20.16 0 0 0-5.86 14.14c0 5.28 2.134 10.422 5.86 14.14a20.094 20.094 0 0 0 14.14 5.876z m0 0" p-id="5174"></path><path d="M956 468.368v-91.618c0-54.016-39.836-98.906-91.672-106.828a19.924 19.924 0 0 0-6.89-1.242h-189.134c-4.234 0-8.35 0.524-12.304 1.476V174c0-22.054-17.946-40-40-40h-74c-11.046 0-20 8.954-20 20s8.954 20 20 20h74v487.82H40v-56h235c11.046 0 20-8.952 20-20 0-11.04-8.954-20-20-20H40V174h338c11.046 0 20-8.954 20-20s-8.954-20-20-20H40C17.946 134 0 151.946 0 174v587.82c0 11.048 8.954 20 20 20h96c0 59.556 48.454 108 108 108s108-48.444 108-108h360c0 59.556 48.454 108 108 108s108-48.444 108-108h58.624c31.64 0 57.376-25.734 57.376-57.374v-170.368c0-41.648-29.08-76.632-68-85.71z m24.304 67.264h-24.014a0.288 0.288 0 0 1-0.29-0.288V510.46a48.246 48.246 0 0 1 24.304 25.172zM847.93 308.68c37.53 0 68.07 30.54 68.07 68.07v89.07h-168V308.68zM656 320.992c0-6.788 5.524-12.312 12.304-12.312H708v177.14c0 11.048 8.954 20 20 20h188v29.524c0 22.21 18.07 40.288 40.29 40.288H984v86.188H656zM123.618 742.062a20.44 20.44 0 0 0-2.954-0.24H40v-40h111.524a108.496 108.496 0 0 0-27.906 40.24zM224 849.822c-37.492 0-68-30.5-68-68 0-37.494 30.508-68 68-68s68 30.506 68 68c0 37.5-30.508 68-68 68z m100.29-108a108.432 108.432 0 0 0-27.814-40H616v40z m331.71 0v-40h71.524a108.432 108.432 0 0 0-27.814 40z m144 108c-37.492 0-68-30.5-68-68 0-37.494 30.508-68 68-68s68 30.506 68 68c0 37.5-30.508 68-68 68z m166.626-108h-66.336a108.432 108.432 0 0 0-27.814-40H984v22.624c0 9.578-7.796 17.374-17.376 17.374z m0 0" p-id="5175"></path><path d="M757.5 545.82H728c-11.046 0-20 8.954-20 20 0 11.048 8.954 20 20 20h29.5c11.046 0 20-8.952 20-20 0-11.046-8.954-20-20-20z m0 0M339.86 571.672a20.154 20.154 0 0 0-5.86 14.156c0 5.266 2.14 10.406 5.86 14.14 3.72 3.72 8.882 5.86 14.14 5.86s10.42-2.14 14.14-5.86a20.214 20.214 0 0 0 5.86-14.14c0-5.28-2.14-10.438-5.86-14.156-3.72-3.72-8.882-5.86-14.14-5.86s-10.42 2.14-14.14 5.86z m0 0" p-id="5176"></path></svg>