<?xml version="1.0" standalone="no"?><!DOCTYPE svg PUBLIC "-//W3C//DTD SVG 1.1//EN" "http://www.w3.org/Graphics/SVG/1.1/DTD/svg11.dtd"><svg t="1614503263945" class="icon" viewBox="0 0 1024 1024" version="1.1" xmlns="http://www.w3.org/2000/svg" p-id="3256" width="128" height="128" xmlns:xlink="http://www.w3.org/1999/xlink"><defs><style type="text/css"></style></defs><path d="M950.84864 283.456v-110.08a36.672 36.672 0 0 0-36.544-36.224H109.69664a36.416 36.416 0 0 0-36.544 36.288v110.016h877.696z m0 73.088H73.15264v475.776c0 19.584 16.384 36.224 36.544 36.224h804.608a36.416 36.416 0 0 0 36.544-36.224V356.48zM0.00064 137.344C0.00064 96.832 32.89664 64 72.83264 64h878.4C991.36064 64 1024.00064 96.832 1024.00064 137.344v731.072c0 40.448-32.896 73.28-72.832 73.28H72.76864A73.024 73.024 0 0 1 0.00064 868.48V137.344z m182.848 365.504a36.48 36.48 0 0 1 36.608-36.544h512a36.48 36.48 0 1 1 0 73.152h-512a36.48 36.48 0 0 1-36.608-36.608z m0 146.304c0-20.224 16.576-36.608 36.48-36.608h219.648a36.48 36.48 0 0 1 36.48 36.608 36.672 36.672 0 0 1-36.48 36.544H219.32864a36.48 36.48 0 0 1-36.48-36.544z" fill="#4F5462" p-id="3257"></path></svg>